<svg width="129" height="72" viewBox="0 0 129 72" fill="none" xmlns="http://www.w3.org/2000/svg">
<path d="M78.5173 71.6542C67.2696 71.1776 58.296 66.67 51.3673 58.0538C50.946 57.5299 50.0451 57.1704 49.3457 57.1323C47.1393 57.0123 44.9222 57.0512 42.7101 57.0871C40.7133 57.1195 39.6079 56.0604 39.3752 54.2141C39.1645 52.5434 40.7216 51.2745 42.7944 51.2092C44.102 51.1681 45.4102 51.1462 46.7178 51.107C46.7715 51.1053 46.8226 51.0145 46.6904 51.139C45.7509 46.737 44.8391 42.4645 43.8526 37.8421C43.2174 37.8421 42.3485 37.8417 41.4795 37.8421C34.2677 37.8451 27.0558 37.8539 19.844 37.8482C17.2856 37.8462 15.7964 36.7826 15.7469 34.9691C15.6965 33.1241 17.1518 32.0341 19.7336 32.0314C27.9229 32.0232 36.1121 32.0284 44.0868 32.0284C45.8387 27.3876 47.5237 22.9239 49.283 18.2634C47.7772 18.2634 45.8784 18.2226 43.9822 18.2745C41.9569 18.33 40.511 17.5348 40.4544 15.4276C40.3974 13.3079 41.8619 12.22 43.8363 12.437C50.6685 13.188 56.1915 10.9984 62.147 7.32504C73.7701 0.155865 86.1237 0.853871 97.9028 8.04447C98.736 8.5531 99.4646 9.23239 100.245 9.82825C100.762 10.223 101.284 10.6104 101.868 11.0487C101.365 11.7508 101.13 12.1699 100.811 12.5099C98.3102 15.1743 98.3328 15.1286 95.3607 13.1307C77.1637 0.89802 53.629 12.4258 50.3038 32.5423C47.4793 49.6294 61.2195 67.4499 81.6951 65.913C96.8429 64.776 108.625 51.962 108.346 36.8262C108.278 33.1547 110.408 31.716 113.31 29.8168C113.603 32.3984 114.264 34.9997 114.127 37.5582C113.403 51.0308 107.163 61.1571 95.2485 67.6521C90.1107 70.453 84.551 71.5923 78.5173 71.6542Z" fill="#FF8604"/>
<path d="M101.292 33.2209C95.2934 39.2775 89.4134 45.2064 83.5423 51.1441C81.3791 53.3318 79.1553 53.3895 76.9996 51.2379C72.3064 46.5532 67.6093 41.8721 62.9556 37.1482C60.8128 34.9731 60.914 32.3309 63.1875 30.6004C64.8351 29.3463 66.599 29.002 68.2881 30.5852C70.3143 32.4845 72.3466 34.3792 74.3158 36.3367C76.2767 38.2862 78.1626 40.3111 80.2801 42.5093C82.8087 39.8318 85.0574 37.3684 87.3936 34.991C98.1771 24.0167 108.974 13.0554 119.806 2.129C120.636 1.2918 121.693 0.430945 122.788 0.160596C124.736 -0.320438 126.541 0.254639 127.559 2.21821C128.547 4.12315 128.215 5.83855 126.708 7.35829C120.828 13.2869 114.944 19.2126 109.083 25.16C106.501 27.7802 103.968 30.4497 101.292 33.2209Z" fill="#FF8604"/>
<path d="M2.55117 32.0381C4.14729 32.0289 5.53221 31.9972 6.91509 32.0368C8.63958 32.0861 9.96672 33.1336 9.7338 34.6947C9.56394 35.8332 8.3373 37.3018 7.24716 37.6946C5.80729 38.2134 3.94795 38.1457 2.44573 37.7144C1.41547 37.4185 -0.0893675 35.9785 0.00415781 35.2211C0.144543 34.0844 1.50017 33.0978 2.55117 32.0381Z" fill="#FF8706"/>
<path d="M28.0538 18.2683C25.8537 18.0906 24.8376 16.812 25.0342 15.0215C25.2344 13.1978 26.6208 12.2978 28.5246 12.3568C29.6609 12.392 30.8149 12.2572 31.932 12.4101C33.6599 12.6467 34.7898 13.6496 34.686 15.5053C34.585 17.3116 33.5517 18.2874 31.6801 18.2699C30.5429 18.2593 29.4055 18.2688 28.0538 18.2683Z" fill="#FF8706"/>
<path d="M26.9593 51.2052C28.0749 51.2055 28.9709 51.1991 29.8668 51.2076C31.7563 51.2255 32.7499 52.2754 32.7927 54.0725C32.8364 55.9076 31.7457 56.9195 29.9479 57.0677C28.8965 57.1544 27.831 57.102 26.7731 57.0703C24.507 57.0024 23.0096 55.788 23.1958 53.9915C23.4074 51.9493 24.681 51.0191 26.9593 51.2052Z" fill="#FF8604"/>
</svg>
